<?xml version="1.0" encoding="iso-8859-1"?>
<!-- Generator: Adobe Illustrator 18.0.0, SVG Export Plug-In . SVG Version: 6.00 Build 0)  -->
<!DOCTYPE svg PUBLIC "-//W3C//DTD SVG 1.1//EN" "http://www.w3.org/Graphics/SVG/1.1/DTD/svg11.dtd">
<svg version="1.1" id="Capa_1" xmlns="http://www.w3.org/2000/svg" xmlns:xlink="http://www.w3.org/1999/xlink" x="0px" y="0px"
	 viewBox="0 0 437.609 437.609" style="enable-background:new 0 0 437.609 437.609;" xml:space="preserve">
<g>
	<path d="M333.014,336.447c-3.602,3.603-9.463,3.603-13.066,0c-3.602-3.603-3.602-9.464,0-13.065l7.733-7.733
		c-4.038-0.355-8.069,1.07-10.999,4.001l-20.531,20.53c-5.403,5.402-5.403,14.195,0,19.598l0.467,0.467
		c5.402,5.403,14.194,5.403,19.598,0l20.53-20.531c2.93-2.93,4.355-6.961,4.001-10.999L333.014,336.447z"/>
	<path d="M389.473,266.456c-5.402-5.403-14.194-5.403-19.598,0l-20.53,20.531c-2.931,2.93-4.354,6.961-4,10.998l7.733-7.733
		c3.602-3.603,9.462-3.603,13.064,0c3.603,3.603,3.603,9.463,0,13.065l-7.732,7.733c4.037,0.354,8.068-1.069,10.998-4l20.531-20.53
		c5.402-5.403,5.402-14.195,0-19.598L389.473,266.456z"/>
	<path d="M420.86,236.199l-0.485-0.487c-10.634-10.632-24.725-16.556-39.753-16.757l9.107-61.467
		c1.072-7.238-1.06-14.585-5.84-20.125c-4.479-5.191-10.868-8.314-17.674-8.686V76.205c0-25.563-20.798-46.36-46.361-46.36h-75.279
		c-25.051,0-38.35,10.578-48.061,18.303c-7.807,6.208-12.519,9.956-22.626,9.956H65.1c-22.781,0-41.315,18.062-41.315,40.263v30.311
		c-6.806,0.372-13.195,3.495-17.674,8.686c-4.779,5.54-6.912,12.887-5.84,20.125L30.467,361.29
		c1.827,12.338,12.417,21.475,24.89,21.475h203.732c1.902,2.724,4.051,5.327,6.479,7.756l0.468,0.468
		c10.819,10.818,25.217,16.776,40.541,16.776c15.324,0,29.722-5.958,40.543-16.778l20.528-20.53
		c5.625-5.625,9.978-12.38,12.837-19.724c7.351-2.838,14.093-7.206,19.826-12.939l20.53-20.53
		C443.196,294.908,443.196,258.534,420.86,236.199z M54.08,128.639V98.366c0-6.239,5.602-9.968,11.02-9.968h108.787
		c20.688,0,32.219-9.172,41.484-16.542c8.552-6.802,14.732-11.716,29.203-11.716h75.279c8.857,0,16.066,7.205,16.066,16.065v52.434
		H54.08z M403.004,299.585l-20.53,20.531c-6.153,6.152-14.528,9.539-23.217,9.445c0.095,8.689-3.293,17.064-9.446,23.217
		l-20.529,20.531c-12.607,12.606-33.121,12.606-45.728,0l-0.467-0.467c-12.607-12.607-12.607-33.121,0-45.729l20.531-20.53
		c6.153-6.152,14.529-9.54,23.217-9.445c-0.094-8.689,3.293-17.064,9.445-23.217l20.531-20.531c12.608-12.606,33.12-12.606,45.728,0
		l0.466,0.467C415.612,266.465,415.612,286.977,403.004,299.585z"/>
</g>
<g>
</g>
<g>
</g>
<g>
</g>
<g>
</g>
<g>
</g>
<g>
</g>
<g>
</g>
<g>
</g>
<g>
</g>
<g>
</g>
<g>
</g>
<g>
</g>
<g>
</g>
<g>
</g>
<g>
</g>
</svg>
