<?xml version="1.0" encoding="iso-8859-1"?>
<!-- Generator: Adobe Illustrator 18.0.0, SVG Export Plug-In . SVG Version: 6.00 Build 0)  -->
<!DOCTYPE svg PUBLIC "-//W3C//DTD SVG 1.1//EN" "http://www.w3.org/Graphics/SVG/1.1/DTD/svg11.dtd">
<svg xmlns="http://www.w3.org/2000/svg" xmlns:xlink="http://www.w3.org/1999/xlink" version="1.1" id="Capa_1" x="0px" y="0px" viewBox="0 0 415.016 415.016" style="enable-background:new 0 0 415.016 415.016;" xml:space="preserve" width="512px" height="512px">
<path d="M411.428,226.729c-4.173-8.656-11.467-15.17-20.55-18.346c-3.166-1.105-6.444-1.752-9.772-1.945l8.623-58.197  c1.072-7.238-1.06-14.586-5.84-20.125c-4.478-5.191-10.868-8.314-17.674-8.687V66.957c0-25.563-20.798-46.361-46.361-46.361h-75.279  c-25.051,0-38.35,10.578-48.062,18.303c-7.807,6.209-12.518,9.957-22.626,9.957H65.098c-22.779,0-41.313,18.061-41.313,40.262  v30.311c-6.807,0.373-13.196,3.496-17.675,8.687c-4.78,5.539-6.912,12.887-5.839,20.125l30.193,203.801  c1.828,12.338,12.418,21.475,24.891,21.475h174.747c2.738,1.943,5.762,3.52,9.021,4.66c3.827,1.336,7.816,2.012,11.858,2.012  c4.861,0,9.558-0.98,13.863-2.781c15.407,11.01,34.021,17.014,53.065,17.014c50.322,0,91.262-40.94,91.262-91.26  c0-7.486-2.301-14.445-6.23-20.209l10.033-28.715C416.154,245.16,415.603,235.391,411.428,226.729z M54.081,119.391V89.117  c0-6.238,5.601-9.967,11.018-9.967h108.788c20.688,0,32.219-9.172,41.484-16.543c8.552-6.801,14.732-11.715,29.203-11.715h75.279  c8.857,0,16.066,7.205,16.066,16.064v52.434H54.081z M318.912,369.42c-15.354,0-30.325-5.373-42.147-15.135  c-4.628-3.814-8.687-8.234-12.097-13.09l-2.316,6.629c-1.998,5.727-8.264,8.746-13.988,6.748c-5.727-2.002-8.747-8.266-6.744-13.988  l11.591-33.178c1.582-4.525,5.83-7.365,10.368-7.365c1.202,0,2.422,0.203,3.621,0.619l33.179,11.596  c5.725,1.998,8.745,8.262,6.743,13.988c-1.999,5.727-8.266,8.744-13.993,6.742l-9.756-3.408  c8.173,10.934,21.225,17.879,35.539,17.879c24.429,0,44.296-19.871,44.296-44.297c0-6.064,4.919-10.978,10.984-10.978  c6.064,0,10.982,4.914,10.982,10.978C385.174,339.695,355.451,369.42,318.912,369.42z M390.381,245.977l-11.592,33.176  c-1.581,4.525-5.828,7.365-10.368,7.365c-1.201,0-2.421-0.203-3.621-0.617l-33.178-11.598c-5.726-1.996-8.745-8.262-6.742-13.988  c1.998-5.727,8.266-8.744,13.992-6.742l9.756,3.41c-8.173-10.936-21.225-17.881-35.541-17.881  c-24.427,0-44.294,19.871-44.294,44.295c0,6.066-4.919,10.98-10.983,10.98c-6.065,0-10.983-4.914-10.983-10.98  c0-36.535,29.724-66.258,66.262-66.258c15.355,0,30.325,5.373,42.148,15.133c4.627,3.816,8.687,8.236,12.097,13.092l2.316-6.631  c1.997-5.727,8.263-8.746,13.988-6.746C389.364,233.988,392.385,240.252,390.381,245.977z" fill="#FFFFFF"/>
<g>
</g>
<g>
</g>
<g>
</g>
<g>
</g>
<g>
</g>
<g>
</g>
<g>
</g>
<g>
</g>
<g>
</g>
<g>
</g>
<g>
</g>
<g>
</g>
<g>
</g>
<g>
</g>
<g>
</g>
</svg>
