<?xml version="1.0" encoding="iso-8859-1"?>
<!-- Generator: Adobe Illustrator 18.0.0, SVG Export Plug-In . SVG Version: 6.00 Build 0)  -->
<!DOCTYPE svg PUBLIC "-//W3C//DTD SVG 1.1//EN" "http://www.w3.org/Graphics/SVG/1.1/DTD/svg11.dtd">
<svg version="1.1" id="Capa_1" xmlns="http://www.w3.org/2000/svg" xmlns:xlink="http://www.w3.org/1999/xlink" x="0px" y="0px"
	 viewBox="0 0 418.662 418.662" style="enable-background:new 0 0 418.662 418.662;" xml:space="preserve">
<g>
	<path d="M343.291,225.251h-10.668c-2.535,0-4.639,1.854-5.042,4.275h20.752C347.93,227.104,345.826,225.251,343.291,225.251z"/>
	<path d="M319.594,276.903c-3.251,0-5.888,2.637-5.888,5.889v51.865c0,3.252,2.636,5.887,5.888,5.887
		c3.252,0,5.887-2.635,5.887-5.887v-51.865C325.481,279.54,322.845,276.903,319.594,276.903z"/>
	<path d="M382.627,205.251l7.101-47.93c1.073-7.238-1.059-14.584-5.839-20.125c-4.479-5.191-10.868-8.315-17.674-8.686V76.038
		c0-25.563-20.797-46.359-46.361-46.359h-75.278c-25.052,0-38.351,10.578-48.062,18.303c-7.807,6.207-12.518,9.955-22.626,9.955
		H65.099c-22.78,0-41.313,18.063-41.313,40.264v30.311c-6.806,0.371-13.196,3.494-17.674,8.686
		c-4.78,5.541-6.912,12.887-5.839,20.125l30.194,203.803c1.828,12.338,12.417,21.475,24.89,21.475h225.399
		c5.591,4.012,12.436,6.385,19.828,6.385h71.491c18.798,0,34.091-15.293,34.091-34.092v-72.406
		c7.55-5.285,12.497-14.047,12.497-23.941v-10.092C418.662,226.925,403.093,208.979,382.627,205.251z M54.081,128.472V98.2
		c0-6.24,5.602-9.969,11.018-9.969h108.788c20.687,0,32.219-9.172,41.484-16.541c8.552-6.803,14.732-11.717,29.204-11.717h75.278
		c8.858,0,16.066,7.205,16.066,16.065v52.434H54.081z M395.29,258.544c0,2.322-1.883,4.205-4.205,4.205h-8.292v92.143
		c0,5.021-4.07,9.092-9.091,9.092h-71.491c-5.021,0-9.091-4.07-9.091-9.092v-92.143h-8.292c-2.322,0-4.205-1.883-4.205-4.205
		v-10.092c0-10.436,8.489-18.926,18.924-18.926h18.186c0.438-7.834,6.948-14.072,14.889-14.072h10.668
		c7.941,0,14.451,6.238,14.889,14.072h18.186c10.435,0,18.924,8.49,18.924,18.926V258.544z"/>
	<path d="M356.321,276.903c-3.252,0-5.888,2.637-5.888,5.889v51.865c0,3.252,2.636,5.887,5.888,5.887
		c3.251,0,5.887-2.635,5.887-5.887v-51.865C362.208,279.54,359.572,276.903,356.321,276.903z"/>
</g>
<g>
</g>
<g>
</g>
<g>
</g>
<g>
</g>
<g>
</g>
<g>
</g>
<g>
</g>
<g>
</g>
<g>
</g>
<g>
</g>
<g>
</g>
<g>
</g>
<g>
</g>
<g>
</g>
<g>
</g>
</svg>
