<?xml version="1.0" encoding="iso-8859-1"?>
<!-- Generator: Adobe Illustrator 18.0.0, SVG Export Plug-In . SVG Version: 6.00 Build 0)  -->
<!DOCTYPE svg PUBLIC "-//W3C//DTD SVG 1.1//EN" "http://www.w3.org/Graphics/SVG/1.1/DTD/svg11.dtd">
<svg version="1.1" id="Capa_1" xmlns="http://www.w3.org/2000/svg" xmlns:xlink="http://www.w3.org/1999/xlink" x="0px" y="0px"
	 viewBox="0 0 432.383 432.383" style="enable-background:new 0 0 432.383 432.383;" xml:space="preserve">
<g>
	<path d="M324.404,230.059c-34.148,0-61.935,27.781-61.935,61.934c0,34.152,27.786,61.935,61.935,61.935
		c34.151,0,61.936-27.782,61.936-61.935C386.339,257.84,358.555,230.059,324.404,230.059z M324.406,340.867
		c-5.774,0-10.454-4.68-10.454-10.452c0-5.778,4.68-10.459,10.454-10.459c5.776,0,10.457,4.681,10.457,10.459
		C334.864,336.188,330.183,340.867,324.406,340.867z M336.629,256.318l-3.859,50.158c-0.354,4.616-4.387,8.073-9.006,7.721
		c-4.185-0.327-7.413-3.667-7.719-7.721l-3.86-50.158c-0.52-6.751,4.532-12.643,11.283-13.162
		c6.75-0.519,12.642,4.532,13.161,11.283C336.679,255.051,336.672,255.722,336.629,256.318z"/>
	<path d="M383.574,201.385l6.154-41.537c1.072-7.238-1.06-14.585-5.84-20.125c-4.479-5.191-10.868-8.314-17.674-8.687V78.565
		c0-25.563-20.798-46.36-46.361-46.36h-75.279c-25.051,0-38.35,10.578-48.061,18.303c-7.807,6.208-12.519,9.956-22.626,9.956H65.1
		c-22.781,0-41.315,18.062-41.315,40.263v30.311c-6.806,0.372-13.195,3.495-17.674,8.687c-4.779,5.54-6.912,12.887-5.84,20.125
		L30.467,363.65c1.827,12.338,12.417,21.475,24.89,21.475h213.672c16.138,9.558,34.952,15.055,55.029,15.055
		c59.73,0,108.325-48.597,108.325-108.329C432.383,254.086,412.955,220.779,383.574,201.385z M54.08,130.998v-30.272
		c0-6.239,5.602-9.968,11.02-9.968h108.787c20.688,0,32.219-9.172,41.484-16.542c8.552-6.802,14.732-11.716,29.203-11.716h75.279
		c8.857,0,16.066,7.205,16.066,16.065v52.434H54.08z M324.404,375.321c-45.942,0-83.324-37.382-83.324-83.329
		s37.382-83.328,83.324-83.328c45.947,0,83.327,37.381,83.327,83.328S370.351,375.321,324.404,375.321z"/>
</g>
<g>
</g>
<g>
</g>
<g>
</g>
<g>
</g>
<g>
</g>
<g>
</g>
<g>
</g>
<g>
</g>
<g>
</g>
<g>
</g>
<g>
</g>
<g>
</g>
<g>
</g>
<g>
</g>
<g>
</g>
</svg>
